<?xml version="1.0" encoding="UTF-8"?>
<svg xmlns="http://www.w3.org/2000/svg" xmlns:xlink="http://www.w3.org/1999/xlink" width="84.474" height="66" viewBox="0 0 84.474 66">
  <defs>
    <clipPath id="clip-path">
      <rect id="Rectangle_1" data-name="Rectangle 1" width="84.474" height="66" fill="none"></rect>
    </clipPath>
  </defs>
  <g id="Group_2" data-name="Group 2" clip-path="url(#clip-path)">
    <path id="Path_1" data-name="Path 1" d="M27.819,54.263H12.62V0H0V66H47.111v-.008c-.04,0-.078.005-.118.005C37,66,30.653,61.327,27.819,54.263" fill="#5f6468"></path>
    <path id="Path_2" data-name="Path 2" d="M309.425,44.047c0-12.882-9.476-22.19-21.859-22.19a19.736,19.736,0,0,0-10.321,3.1l0-13.231h27.172V.163H265.708l-.284,35.045,11.166,3.01a12.105,12.105,0,0,1,10.132-5.642c6.1,0,10.32,4.608,10.32,11.1,0,7.428-5.441,10.719-10.789,10.719-5.442,0-7.416-2.726-8.353-7.522H265.421a24.665,24.665,0,0,0,1.657,7.542h0c2.834,7.064,9.184,11.735,19.174,11.735.04,0,.078-.005.118-.005h0c13.17-.057,23.056-9.528,23.056-22.09" transform="translate(-239.259 -0.147)" fill="#ff8400"></path>
    <path id="Path_3" data-name="Path 3" d="M718.262.4v.9h-2.545V7.968h-1.039V1.3h-2.545V.4Z" transform="translate(-641.938 -0.358)" fill="#5f6468"></path>
    <path id="Path_4" data-name="Path 4" d="M783.55.4h1.466l2.17,6.4L789.34.4h1.45v7.57h-.972V3.5q0-.232.01-.768t.01-1.149l-2.155,6.385h-1.013L784.5,1.582v.232q0,.278.013.848t.013.837V7.967h-.977Z" transform="translate(-706.316 -0.358)" fill="#5f6468"></path>
  </g>
</svg>
